# xmcd CD database file
#
# Track frame offsets:
#	150
#	16413
#	31713
#	43868
#	60550
#	74843
#	89885
#	106043
#	121546
#	137412
#	151100
#	170059
#
# Disc length: 2427 seconds
#
# Revision: 2
# Processed by: cddbd v1.5.2PL0 Copyright (c) Steve Scherf et al.
# Submitted via: ACXtractor (MTCDDB.DLL V2003.12.21)
#
DISCID=9909790c
DTITLE=Slim Dusty - Songs From The Land I Love
DYEAR=1975
DGENRE=Rock
TTITLE0=When The Scrubbers Break
TTITLE1=The Road Is Still My Home
TTITLE2=The Drover's Cook
TTITLE3=Land Of No Second Chance
TTITLE4=The Retired Drover
TTITLE5=Australian Bushmen
TTITLE6=When Snowy Sings Of Home
TTITLE7=Big John
TTITLE8=Men Who Come Behind
TTITLE9=Dust From The Land I Love
TTITLE10=Camooweal
TTITLE11=Willy Willy
EXTD=1996 EMI Music Australia ID3G:  17 YEAR: 1975
EXTT0=
EXTT1=
EXTT2=
EXTT3=
EXTT4=
EXTT5=
EXTT6=
EXTT7=
EXTT8=
EXTT9=
EXTT10=
EXTT11=
PLAYORDER=
